<?xml version="1.0" encoding="utf-8"?>
<!-- Generator: Adobe Illustrator 24.1.0, SVG Export Plug-In . SVG Version: 6.00 Build 0)  -->
<svg version="1.1" id="Ebene_1" xmlns="http://www.w3.org/2000/svg" xmlns:xlink="http://www.w3.org/1999/xlink" x="0px" y="0px"
	 viewBox="0 0 1009 416" style="enable-background:new 0 0 1009 416;" xml:space="preserve">
<style type="text/css">
	.st0{fill:#808080;}
	.st1{fill:#7A7A7A;}
	.st2{fill:#F9CB08;}
	.st3{fill:#F200FF;}
</style>
<g>
	<path class="st0" d="M493.6,286c1.1-0.4,2.2-0.7,3.4-1.1c1.1-0.3,2.4-0.7,3.6-1c4-1,8.3-2,12.9-2.8c1.2-0.2,2.4-0.4,3.4-0.6
		c5.2-0.8,10.5-1.5,15.7-2c1.4-0.1,2.6-0.2,3.8-0.3c1.8-0.1,3.5-0.2,5.2-0.3c0.2,0,0.4,0.1,0.6,0.1c0.5,0,0.9-0.1,1.3-0.3l2.4-1.2
		l2.4-1.2c1-0.5,1.7-1.6,1.7-2.7v-0.8c0-0.8-0.3-1.6-0.9-2.2c-0.6-0.6-1.3-0.9-2.1-0.9h-0.1l-2.5,0.1c-13.2,0.4-28.1,2.3-40.9,5.1
		c-9.2,2-21.1,5.4-27.9,10.2c-6.4-4.4-17.1-7.5-25.4-9.4c-16-3.7-35.7-6-51.5-6c-15.6,0-34.9,2.3-50.3,6c-7.9,1.9-18.1,5-24.2,9.3
		c-6.3-4.5-17.3-7.7-25.9-9.7c-15.8-3.6-35.4-5.9-51-6l0,0c-0.8,0-1.6,0.3-2.2,0.9c-0.6,0.6-0.9,1.4-0.9,2.2v2.9
		c0,1.7,1.4,3.1,3,3.1c2.9,0,5.9,0.1,9.1,0.3c1.3,0.1,2.5,0.1,3.8,0.2c5.3,0.4,10.7,0.9,16,1.7c1.4,0.2,2.7,0.4,4.1,0.6
		c5.3,0.8,10.4,1.8,15,2.8c0.3,0.1,0.7,0.2,1,0.2l0,0c1.2,0.3,2.3,0.6,3.4,0.8c12.7,3.3,17.6,6.5,18.8,8.1c0,0.3,0,0.6,0,0.9
		c0,0.1,0,0.1,0,0.2c-1.3,1.7-6.3,4.8-18.7,8c-1,0.3-2.2,0.6-3.4,0.9l0,0c-0.3,0.1-0.6,0.2-1,0.2c-4.6,1.1-9.7,2-15,2.8
		c-1.3,0.2-2.7,0.4-4.1,0.6c-5.4,0.7-10.8,1.3-16,1.7c-1.2,0.1-2.4,0.2-3.8,0.2c-3.2,0.2-6.3,0.3-9.1,0.3c-1.7,0-3,1.4-3,3.1v2.9
		c0,0.8,0.3,1.6,0.9,2.2c0.6,0.6,1.4,0.9,2.2,0.9l0,0c9.9,0,21.6-1,33-2.6l0.9-0.1c6-0.9,11.8-2,17.1-3.2c8.3-1.9,19-5,25.3-9.3
		c6,4.5,16.5,7.7,24.7,9.7c15.4,3.7,34.7,6,50.3,6c15.7,0,35.5-2.3,51.5-6c8.3-1.9,19.1-5,25.4-9.4c6.8,4.9,18.7,8.2,27.9,10.2
		c12.8,2.8,27.7,4.6,40.9,5.1l2.5,0.1h0.1c1.4,0,2.6-0.9,2.9-2.2c0.4-1.4-0.2-2.8-1.5-3.5l-2.8-1.5l-2.8-1.6
		c-0.4-0.2-0.9-0.4-1.3-0.4c-1.8-0.1-3.5-0.2-5.1-0.3c-1.4-0.1-2.6-0.2-3.8-0.3c-5.2-0.5-10.5-1.2-15.7-2c-1.1-0.2-2.2-0.4-3.5-0.6
		c-4.6-0.8-9-1.8-12.9-2.8c-1.3-0.3-2.5-0.7-3.6-1c-1.2-0.3-2.3-0.7-3.4-1.1c-8.1-2.7-11.1-5-12.1-6.1c0-0.3,0.1-0.6,0.1-0.9
		s0-0.6-0.1-0.9C482.6,290.9,485.5,288.7,493.6,286z M447.2,302.7L447.2,302.7l-0.2,0.1l0,0c-4.9,1.1-10.3,2.1-16,3
		c-1.1,0.2-2.6,0.4-4.1,0.6c-5.4,0.7-10.8,1.3-16,1.6c-1.1,0.1-2.3,0.1-3.8,0.2c-2.9,0.1-5.7,0.2-8.2,0.2s-5.2-0.1-8-0.2
		c-1.4-0.1-2.6-0.1-3.8-0.2c-6-0.4-12.2-1.1-18.3-2c-0.8-0.1-1.6-0.2-2.4-0.4c-5.2-0.8-10.1-1.8-14.6-2.9c-0.3-0.1-0.6-0.1-0.9-0.2
		l0,0c-1.1-0.3-2.2-0.6-3.3-0.8c-12-3.3-16.7-6.5-17.8-8.1c0-0.3,0.1-0.6,0.1-0.9c0-0.1,0-0.2,0-0.2c1.2-1.7,6-4.8,17.8-8
		c1-0.3,2-0.5,3.3-0.9l0.4-0.1c0.2,0,0.3-0.1,0.5-0.1c4.5-1.1,9.4-2.1,14.6-2.9c1.4-0.2,2.9-0.4,4.3-0.6c5.5-0.8,11-1.3,16.3-1.7
		c1.1-0.1,2.3-0.1,3.8-0.2c2.8-0.1,5.5-0.2,8-0.2c2.6,0,5.3,0.1,8.2,0.2c1.4,0.1,2.6,0.1,3.8,0.2c5.2,0.3,10.6,0.9,16,1.6
		c1.5,0.2,3,0.4,4.1,0.6c5.7,0.8,11.1,1.8,16,3c0.1,0,0.2,0,0.3,0.1l0,0c1.1,0.2,2.1,0.5,3.2,0.8c14,3.5,18.4,6.7,19.7,8.1
		c0,0.3,0,0.6,0,0.8c0,0.3,0,0.6,0,0.8c-1.3,1.4-5.8,4.6-19.7,8.1C449.3,302.2,448.3,302.4,447.2,302.7z"/>
</g>
<g>
	<rect x="528.8" y="275.2" class="st0" width="6" height="35.4"/>
	<rect x="501.4" y="278.9" class="st0" width="6" height="27.3"/>
</g>
<g>
	<rect x="379.6" y="272.9" class="st0" width="6.3" height="40.6"/>
	<rect x="351.5" y="279" class="st0" width="5.9" height="29.4"/>
	<rect x="410" y="273.5" class="st0" width="6.6" height="39"/>
	<rect x="441.3" y="277.3" class="st0" width="6" height="30.6"/>
</g>
<g>
	<rect x="262.5" y="273.5" class="st0" width="6.6" height="39"/>
	<rect x="290.9" y="277.3" class="st0" width="6" height="30.6"/>
</g>
<g>
	<path class="st1" d="M610.1,269.3l-1.4,7.6h-14l-7.5,37h-8.5l7.5-37h-13.9l1.4-7.6H610.1z"/>
	<path class="st1" d="M633.4,283.5c2.7,2.7,4.1,6.3,4.1,10.8c0,1.8-0.2,3.6-0.6,5.4H611c0.2,2.5,1.1,4.4,2.7,5.8
		c1.6,1.4,3.8,2.1,6.5,2.1c3.2,0,6.2-1,8.9-3.1l3.9,5c-3.6,3.1-7.9,4.7-13.1,4.7c-3.4,0-6.5-0.6-9-1.9c-2.6-1.3-4.6-3.1-6-5.4
		c-1.4-2.4-2.1-5.1-2.1-8.2c0-3.6,0.8-6.9,2.5-9.8s4-5.2,6.9-6.9c3-1.7,6.3-2.5,9.9-2.5C626.9,279.6,630.7,280.9,633.4,283.5z
		 M628.1,288.3c-1.3-1.4-3.2-2.1-5.7-2.1s-4.7,0.7-6.6,2.2c-1.9,1.5-3.3,3.4-4.1,5.9H630C630,291.7,629.4,289.7,628.1,288.3z"/>
	<path class="st1" d="M645.3,312.5c-2.9-1.2-5.1-2.7-6.8-4.7l3.6-5.4c1.4,1.6,3.3,2.9,5.5,3.9s4.3,1.5,6.2,1.5c1.6,0,2.8-0.3,3.8-1
		c0.9-0.7,1.4-1.5,1.4-2.6c0-1-0.5-1.8-1.4-2.4s-2.4-1.3-4.3-2.1c-2-0.8-3.6-1.6-4.8-2.2c-1.3-0.7-2.3-1.6-3.2-2.9
		c-0.9-1.2-1.3-2.8-1.3-4.6c0-2.1,0.5-3.9,1.6-5.5s2.5-2.8,4.5-3.7c1.9-0.9,4.1-1.3,6.6-1.3s5.1,0.5,7.7,1.4
		c2.6,0.9,4.7,2.1,6.5,3.7l-4,5.5c-1.7-1.2-3.4-2.2-5.3-3c-1.9-0.7-3.5-1.1-5-1.1c-1.3,0-2.4,0.3-3.3,1c-0.9,0.6-1.3,1.4-1.3,2.4
		c0,0.9,0.4,1.7,1.3,2.3c0.9,0.6,2.3,1.3,4.3,2.1c2,0.9,3.7,1.6,5,2.3c1.3,0.7,2.4,1.7,3.3,2.9c0.9,1.3,1.4,2.8,1.4,4.7
		c0,2.1-0.6,3.9-1.7,5.5c-1.1,1.6-2.7,2.9-4.7,3.8s-4.3,1.4-6.8,1.4C651.2,314.3,648.2,313.7,645.3,312.5z"/>
	<path class="st1" d="M684.3,303c-0.1,0.7-0.2,1.3-0.2,1.7c0,0.9,0.2,1.4,0.6,1.8c0.4,0.3,1,0.5,1.9,0.5c1.3,0,3.1-0.5,5.4-1.5
		l1.1,6.6c-2.8,1.5-5.7,2.3-8.7,2.3c-2.6,0-4.7-0.7-6.3-2.1s-2.4-3.3-2.4-5.9c0-0.9,0.1-1.8,0.3-2.6l3.3-16.4h-4.7l1.1-6.1h4.8
		l1.8-9.4h8.3l-1.9,9.4h9.8l-1.1,6.1h-9.9L684.3,303z"/>
	<path class="st1" d="M739.6,276.8h-24.2l-2.2,11h21.7l-1.5,7.5h-21.7l-2.2,11.2h24.9L733,314h-33.5l8.9-44.6H741L739.6,276.8z"/>
	<path class="st1" d="M800.4,282.3c2.2,2,3.3,4.7,3.3,8.1c0,1.1-0.1,2.2-0.4,3.4l-4,20.1H791l3.8-18.9c0.1-0.7,0.2-1.4,0.2-2
		c0-1.9-0.6-3.4-1.8-4.5s-2.8-1.7-5-1.7c-2.5,0-4.6,0.8-6.4,2.5c-1.8,1.7-3,3.8-3.6,6.6l-3.6,18h-8.3l3.8-18.9
		c0.1-0.7,0.2-1.4,0.2-2c0-1.9-0.6-3.4-1.8-4.5s-2.8-1.7-5-1.7c-2.4,0-4.6,0.8-6.4,2.5c-1.8,1.7-3,3.8-3.6,6.6l-3.7,18h-8.3
		l6.7-34.1h8.4l-1,4.8c2.7-3.5,6.4-5.3,11.1-5.3c3.1,0,5.7,0.7,7.7,2c2.1,1.3,3.4,3.2,4.1,5.6c3.2-5.1,7.5-7.6,12.9-7.6
		C795.2,279.4,798.2,280.4,800.4,282.3z"/>
	<path class="st1" d="M842,313.9l-2.4-9.4h-21.9l-5.5,9.4h-8.8l26.9-44.6h8.8l12,44.6H842z M822,297.2h15.8l-4.7-19L822,297.2z"/>
	<path class="st1" d="M874.4,266.6l-9.4,47.3h-8.3l9.4-47.3H874.4z"/>
	<path class="st1" d="M893.6,266.6l-9.4,47.3h-8.3l9.4-47.3H893.6z"/>
</g>
<path class="st2" d="M358.6,111.2h42.7v93.5H455v35.5h-96.5v-129H358.6z"/>
<path class="st2" d="M565.3,240.3l-6.4-18.2h-48.4l-6.6,18.2H460l54.5-129h43.8l52.5,129H565.3z M521.5,191.5h26.9l-13.3-37.7
	L521.5,191.5z"/>
<path class="st2" d="M619.1,111.2h45.3l32,67.4l31.8-67.4h45.3v129h-37.4v-70.7l-26,58.2h-27.8l-26-58.2v70.7h-37.4v-129H619.1z"/>
<path class="st2" d="M886.6,123.3c9.2,8,13.8,19.4,13.8,34.1c0,15.6-4.6,27.7-13.8,36.4s-22.2,13-39,13h-17.9v33.5H787v-129h60.6
	C864.3,111.2,877.4,115.3,886.6,123.3z M856.1,170.2c2.5-2.8,3.8-6.6,3.8-11.5c0-4.8-1.3-8.5-3.8-11.1s-6.1-4-10.8-4h-15.6v30.7
	h15.6C850,174.4,853.6,173,856.1,170.2z"/>
<path class="st3" d="M159.5,152.3c8.9,9.8,13.4,23.2,13.4,40.3c0,2.6-0.1,4.7-0.2,6h-70.9c1.6,5.8,4.5,10.2,8.5,13.3
	s8.9,4.6,14.7,4.6c4.4,0,8.6-0.9,12.7-2.6c4.1-1.8,7.8-4.3,11.2-7.7l17.5,17.5c-5.3,5.9-11.7,10.4-19.1,13.5
	c-7.5,3.1-15.9,4.6-25.4,4.6c-10.9,0-20.5-2.1-28.7-6.4c-8.2-4.3-14.4-10.3-18.8-18.1c-4.3-7.8-6.5-16.8-6.5-27.1
	c0-10.4,2.2-19.6,6.6-27.6s10.6-14.1,18.7-18.5c8-4.3,17.3-6.5,27.9-6.5C137.8,137.6,150.6,142.5,159.5,152.3z M140.3,180.8
	c0-5.9-1.7-10.6-5.2-14.2c-3.5-3.6-8-5.4-13.7-5.4c-5.3,0-9.7,1.8-13.3,5.3c-3.6,3.5-5.9,8.3-7.1,14.3L140.3,180.8L140.3,180.8z"/>
<path class="st3" d="M274.4,144.1c7.2,4.3,12.7,10.5,16.7,18.5s5.9,17.2,5.9,27.6c0,10.3-1.9,19.4-5.7,27.1
	c-3.8,7.8-9.3,13.8-16.4,18.1s-15.3,6.4-24.6,6.4c-6.4,0-12.2-1.2-17.4-3.7s-9.6-6-13.3-10.7v49.8H186V138.8h33.6V152
	c7.4-9.5,17.4-14.3,30-14.3C258.9,137.6,267.2,139.8,274.4,144.1z M257.1,207.7c4.1-4.6,6.1-10.7,6.1-18.3c0-7.5-2-13.7-6.1-18.4
	s-9.4-7.1-15.9-7.1c-6.4,0-11.6,2.4-15.6,7.1c-4,4.7-6,10.8-6,18.4c0,7.5,2,13.6,6,18.3s9.2,7,15.6,7
	C247.7,214.7,253,212.4,257.1,207.7z"/>
<path class="st3" d="M339.5,94.8c3.3,3.3,5,7.6,5,12.9c0,5.2-1.7,9.4-5,12.8s-7.6,5.1-12.7,5.1c-5.2,0-9.4-1.7-12.7-5.1
	c-3.3-3.4-5-7.7-5-12.8c0-5.3,1.7-9.6,5-12.9s7.6-5,12.7-5S336.1,91.5,339.5,94.8z M310.3,136.8h33.4v102h-33.4V136.8z"/>
</svg>
